<svg width="155" height="155" viewBox="0 0 155 155" fill="none" xmlns="http://www.w3.org/2000/svg">
<g clip-path="url(#clip0_2088_2556)">
<path d="M121.14 88.11C114.613 88.11 108.233 90.0454 102.806 93.6715C97.3793 97.2976 93.1496 102.451 90.6519 108.481C88.1542 114.511 87.5007 121.147 88.774 127.548C90.0473 133.949 93.1902 139.829 97.8054 144.445C102.421 149.06 108.301 152.203 114.702 153.476C121.103 154.749 127.738 154.096 133.768 151.598C139.798 149.1 144.952 144.871 148.578 139.444C152.204 134.017 154.14 127.637 154.14 121.11C154.14 112.358 150.663 103.964 144.474 97.7755C138.286 91.5868 129.892 88.11 121.14 88.11ZM121.14 132.24C118.945 132.24 116.798 131.589 114.973 130.369C113.148 129.15 111.725 127.416 110.885 125.388C110.045 123.36 109.825 121.128 110.253 118.974C110.681 116.821 111.739 114.843 113.291 113.291C114.843 111.739 116.821 110.682 118.974 110.253C121.128 109.825 123.359 110.045 125.388 110.885C127.416 111.725 129.15 113.148 130.369 114.973C131.589 116.799 132.24 118.945 132.24 121.14C132.241 122.598 131.955 124.042 131.398 125.389C130.84 126.737 130.023 127.961 128.992 128.992C127.961 130.023 126.737 130.84 125.389 131.398C124.042 131.955 122.598 132.241 121.14 132.24Z" fill="#002FDB"/>
<path d="M33.05 0C24.2979 0 15.9042 3.47678 9.71552 9.66548C3.52682 15.8542 0.0500488 24.2479 0.0500488 33C0.0500488 41.7521 3.52682 50.1458 9.71552 56.3345C15.9042 62.5232 24.2979 66 33.05 66C41.8022 66 50.1959 62.5232 56.3846 56.3345C62.5733 50.1458 66.05 41.7521 66.05 33C66.05 24.2479 62.5733 15.8542 56.3846 9.66548C50.1959 3.47678 41.8022 0 33.05 0ZM33.05 44.14C30.1061 44.14 27.2828 42.9705 25.2012 40.8889C23.1195 38.8072 21.9501 35.9839 21.9501 33.04C21.9501 30.0961 23.1195 27.2728 25.2012 25.1911C27.2828 23.1095 30.1061 21.94 33.05 21.94C34.5073 21.94 35.9502 22.2272 37.2963 22.7851C38.6425 23.3431 39.8655 24.1609 40.8954 25.1917C41.9253 26.2226 42.742 27.4463 43.2988 28.793C43.8555 30.1396 44.1414 31.5828 44.14 33.04C44.1414 34.4972 43.8555 35.9404 43.2988 37.287C42.742 38.6337 41.9253 39.8574 40.8954 40.8883C39.8655 41.9191 38.6425 42.7369 37.2963 43.2949C35.9502 43.8528 34.5073 44.14 33.05 44.14Z" fill="#005CDC"/>
<path d="M125.55 31.17C124.41 28.4599 122.495 26.1468 120.045 24.5208C117.595 22.8948 114.72 22.0283 111.78 22.03H77.05V44.03H92.95C93.28 44.03 93.61 44.47 93.61 44.8C93.6177 44.8597 93.6119 44.9204 93.5928 44.9776C93.5738 45.0347 93.542 45.0868 93.5 45.13C93.39 45.24 93.39 45.35 93.28 45.46L67.05 71.59H98.22L122.35 47.47C124.44 45.3769 125.86 42.7095 126.43 39.8069C127 36.9044 126.694 33.8979 125.55 31.17Z" fill="#005CDC"/>
<path d="M28.6699 123.02C29.8112 125.729 31.7265 128.042 34.1759 129.667C36.6254 131.293 39.5 132.16 42.4399 132.16H77.1299V110.16H61.2699C60.9399 110.16 60.6099 109.72 60.6099 109.39C60.6022 109.33 60.6081 109.27 60.6272 109.212C60.6462 109.155 60.6779 109.103 60.7199 109.06C60.8299 108.95 60.8299 108.84 60.9399 108.73L87.1499 82.6H55.9899L31.8699 106.76C29.7878 108.85 28.3725 111.51 27.8028 114.404C27.2332 117.299 27.535 120.297 28.6699 123.02Z" fill="#002FDB"/>
</g>
<defs>
<clipPath id="clip0_2088_2556">
<rect width="154.17" height="154.17" fill="white"/>
</clipPath>
</defs>
</svg>
