<?xml version="1.0" ?><svg width="128px" height="128px" viewBox="0 0 128 128" xmlns="http://www.w3.org/2000/svg"><title/><path d="M104,49.5C104,28.24,86.26,11,65,11,38.57,11,17.61,37.63,29.36,65.51A12,12,0,0,1,26,66l2,12a30,30,0,0,1,6.38.68l5.34,28.7L53.52,119h22c5-4.18,9.84-7.44,14.8-11.62l5.34-28.7A30,30,0,0,1,102,78l2-12a12,12,0,0,1-3.49-.52A38.33,38.33,0,0,0,104,49.5Z" style="fill: #e3e2de"/><path d="M100.51,65.48a38.3,38.3,0,0,0,3.39-18.74,39,39,0,0,0-55.5-32,36.74,36.74,0,0,1,25.22,1.1C80.54,18.69,78.49,29,71,29h0a6,6,0,0,0-6,6H81.82A14.38,14.38,0,0,1,96.28,49.16v.15a36.08,36.08,0,0,1-2.4,12.94A2.13,2.13,0,0,0,95.22,65,1.16,1.16,0,0,1,96,66.3l-.54,3.24a8.9,8.9,0,0,1-4.9,6.51,4.86,4.86,0,0,0-2.72,3.44l-3,16.07a22.43,22.43,0,0,1-8.51,13.79l-.14.11a26.55,26.55,0,0,1-16,5.39H48.67s-.36-.24,4.85,4.15h22c5-4.18,9.84-7.44,14.8-11.62l5.34-28.7A29.51,29.51,0,0,1,102,78l2-12A11.89,11.89,0,0,1,100.51,65.48Z" style="fill: #fff"/><circle cx="82" cy="52" r="10" style="fill: #fff"/><path d="M80.16,79.08c5.42-5.35,7.14-13.27,5.37-20.67A18.9,18.9,0,0,1,85,54V52.17A3.11,3.11,0,0,1,87.84,49,3,3,0,0,1,91,52v1.57c0,5.81,3.58,11.32,9.18,12.86a3,3,0,0,1,2.17,3.39l-.81,4.84a3,3,0,0,1-2.71,2.5C86,78.4,78,87.11,78,99.88A3.1,3.1,0,0,1,75.18,103,3,3,0,0,1,72,100C72,91.46,75,84.21,80.16,79.08Z" style="fill: #fff"/><path d="M67.83,82H62.17A6,6,0,0,1,57,73l2.83-5a6,6,0,0,1,10.42,0L73,73a6,6,0,0,1-5.21,9ZM65,71l-2.83,5h5.68Z" style="fill: #31352e"/><path d="M38,35H58a0,0,0,0,1,0,0V58.69A3.31,3.31,0,0,1,54.69,62H41.31A3.31,3.31,0,0,1,38,58.69V35A0,0,0,0,1,38,35Z" style="fill: #31352e"/><g><path d="M55,93v7a3,3,0,0,0,6,0V93a3,3,0,0,0-6,0Z" style="fill: #31352e"/><path d="M62,93v7a3,3,0,0,0,6,0V93a3,3,0,0,0-6,0Z" style="fill: #31352e"/><path d="M72,103a3,3,0,0,0,3-3V93a3,3,0,0,0-6,0v7A3,3,0,0,0,72,103Z" style="fill: #31352e"/><path d="M104,63a9,9,0,0,1-9-9V52a13,13,0,1,0-4,9.4,15.05,15.05,0,0,0,9.57,7.2l-1.08,6.49C85.11,76.1,76,85.65,76,100c0,4,6,4,6,0,0-8,3.57-13.91,9.74-16.87l-4.21,22.64c-4.32,3.56-8.69,6.57-13.13,10.23H54.61L42.47,105.78,38.92,86.67c-.72-3.9-6.62-2.8-5.9,1.1,4.08,22,3.64,21,4.77,21.91C52.79,122.31,52,122,53.52,122c23.65,0,22.74.27,23.9-.71,8.47-7.14,15.37-11,15.81-13.37,5-27,4.92-25.63,4.68-26.63,7.91-1.16,6.15,2.56,9-14.81A3,3,0,0,0,104,63ZM82,59a7,7,0,1,1,7-7A7,7,0,0,1,82,59Z" style="fill: #31352e"/><path d="M48,100c0,4,6,4,6,0,0-14.35-9.11-23.9-23.44-24.91l-1.08-6.49a15,15,0,0,0,8-4.93C39.66,65.39,40.27,65,54.69,65A6.31,6.31,0,0,0,61,58.69V38H99.05a35.21,35.21,0,0,1,1.06,19.44c-.89,3.88,5,5.23,5.85,1.33a41.26,41.26,0,0,0-.7-21.06A3,3,0,0,0,104,32h-.93C88,.12,42.14,0,27,32H26c-4,0-4,6,0,6h9c0,16.92.93,20.11-3.94,23.44a35.4,35.4,0,0,1-1.55-17.88c.68-3.91-5.23-4.93-5.91-1a41.42,41.42,0,0,0,1.68,20.56A3,3,0,0,0,23,66.49l2,12A3,3,0,0,0,28,81C40.34,81,48,88.28,48,100Zm7-41.31a.31.31,0,0,1-.31.31H41.31a.31.31,0,0,1-.31-.31V38H55ZM33.75,32C47.66,7.93,82.52,8.12,96.3,32Z" style="fill: #31352e"/></g><circle cx="82" cy="52" r="3" style="fill: #31352e"/></svg>