<svg width="24" height="24" viewBox="0 0 24 24" fill="none" xmlns="http://www.w3.org/2000/svg">
<path d="M19.3184 13.474C18.8829 13.4739 18.454 13.5793 18.0685 13.7812C17.6831 13.983 17.3528 14.2752 17.106 14.6325C16.8593 14.9899 16.7035 15.4016 16.6522 15.8322C16.6009 16.2629 16.6556 16.6995 16.8115 17.1044L13.9447 18.7879C13.6942 18.4956 13.3834 18.2606 13.0333 18.0989C12.6832 17.9373 12.3023 17.8528 11.9164 17.8513C11.5305 17.8498 11.1489 17.9312 10.7976 18.0901C10.4462 18.2489 10.1335 18.4815 9.88068 18.7718L6.99774 17.1068C7.13853 16.7417 7.19717 16.3503 7.16951 15.9603C7.14186 15.5702 7.02858 15.1909 6.83768 14.8491C6.64678 14.5074 6.3829 14.2115 6.06466 13.9824C5.74642 13.7533 5.38157 13.5965 4.99585 13.5231V10.5354C5.38654 10.4611 5.75578 10.3014 6.07688 10.0676C6.39797 9.83389 6.6629 9.53201 6.8525 9.18382C7.0421 8.83564 7.15164 8.44984 7.17319 8.05434C7.19474 7.65884 7.12777 7.26351 6.97712 6.89693L9.87462 5.22468C10.1267 5.51607 10.4391 5.74976 10.7903 5.90976C11.1415 6.06975 11.5233 6.15227 11.9095 6.15166C12.2957 6.15104 12.6773 6.06732 13.028 5.90621C13.3787 5.74511 13.6903 5.51043 13.9415 5.21824L16.8353 6.8917C16.5785 7.50921 16.5622 8.1999 16.7895 8.82877C17.0168 9.45764 17.4715 9.97948 18.0646 10.2923C18.6577 10.6051 19.3466 10.6864 19.9967 10.5203C20.6469 10.3542 21.2114 9.95269 21.58 9.39415C21.9487 8.83562 22.0949 8.16026 21.9901 7.50008C21.8854 6.83989 21.5372 6.24234 21.0135 5.82422C20.4899 5.4061 19.8286 5.19747 19.1587 5.2391C18.4888 5.28073 17.8586 5.56963 17.3913 6.04933L14.4449 4.34527C14.5842 3.94209 14.6247 3.51158 14.563 3.08964C14.5014 2.66769 14.3393 2.26654 14.0904 1.91963C13.8414 1.57272 13.5128 1.2901 13.1319 1.09534C12.751 0.900575 12.3289 0.799312 11.9007 0.799991C11.4726 0.80067 11.0508 0.903272 10.6705 1.09924C10.2902 1.29521 9.96254 1.57887 9.7147 1.92657C9.46687 2.27427 9.30609 2.67593 9.24578 3.09807C9.18546 3.52021 9.22736 3.95059 9.36798 4.35333L6.42317 6.05296C6.13013 5.75024 5.76954 5.52061 5.37067 5.38271C4.9718 5.2448 4.54589 5.20251 4.12753 5.25926C3.70917 5.31602 3.31014 5.47022 2.96285 5.70935C2.61555 5.94848 2.32978 6.2658 2.12873 6.63555C1.92767 7.00529 1.81701 7.41704 1.80572 7.83736C1.79443 8.25768 1.88283 8.67473 2.06375 9.05465C2.24467 9.43457 2.513 9.76665 2.84696 10.0239C3.18092 10.2812 3.5711 10.4564 3.98581 10.5354V13.5231C3.56805 13.6019 3.17505 13.7784 2.83914 14.038C2.50323 14.2976 2.23402 14.6329 2.05365 15.0164C1.87329 15.3998 1.78692 15.8204 1.80166 16.2436C1.81641 16.6668 1.93183 17.0804 2.13845 17.4505C2.34506 17.8205 2.63696 18.1365 2.99013 18.3723C3.34329 18.6081 3.74763 18.757 4.16987 18.8068C4.59212 18.8566 5.0202 18.8058 5.4189 18.6587C5.81759 18.5115 6.17551 18.2722 6.4632 17.9604L9.37 19.6399C9.22807 20.0424 9.18483 20.4728 9.2439 20.8952C9.30298 21.3177 9.46265 21.72 9.70959 22.0685C9.95653 22.417 10.2836 22.7017 10.6635 22.8987C11.0433 23.0957 11.465 23.1994 11.8934 23.2012C12.3217 23.2029 12.7442 23.1026 13.1257 22.9087C13.5071 22.7147 13.8365 22.4327 14.0863 22.0862C14.3361 21.7397 14.499 21.3387 14.5615 20.9168C14.624 20.4948 14.5843 20.064 14.4457 19.6605L17.3436 17.9604C17.6459 18.2873 18.0253 18.534 18.4474 18.6782C18.8695 18.8225 19.3211 18.8596 19.7613 18.7864C20.2014 18.7131 20.6163 18.5318 20.9684 18.2588C21.3206 17.9857 21.5988 17.6296 21.778 17.2226C21.9572 16.8156 22.0317 16.3705 21.9947 15.9276C21.9578 15.4847 21.8106 15.058 21.5665 14.6859C21.3223 14.3139 20.9889 14.0084 20.5964 13.7969C20.2039 13.5854 19.7646 13.4747 19.3184 13.4748V13.474ZM19.3184 6.23979C19.6497 6.23979 19.9736 6.33763 20.2491 6.52094C20.5245 6.70424 20.7392 6.96478 20.866 7.26961C20.9928 7.57444 21.026 7.90986 20.9614 8.23347C20.8967 8.55707 20.7372 8.85432 20.5029 9.08763C20.2686 9.32093 19.9701 9.47981 19.6452 9.54418C19.3202 9.60855 18.9834 9.57552 18.6773 9.44925C18.3712 9.32299 18.1096 9.10917 17.9255 8.83483C17.7414 8.56049 17.6432 8.23796 17.6432 7.90801C17.6437 7.46574 17.8204 7.04173 18.1344 6.72899C18.4485 6.41625 18.8742 6.24032 19.3184 6.23979V6.23979ZM11.9044 1.80771C12.1966 1.80757 12.4837 1.88358 12.7373 2.02818C12.9908 2.17279 13.202 2.38094 13.3497 2.63197C13.4974 2.883 13.5767 3.16817 13.5795 3.45912C13.5823 3.75008 13.5086 4.0367 13.3657 4.29051L13.3596 4.29937C13.3576 4.30299 13.356 4.30702 13.354 4.31064C13.2068 4.56402 12.9952 4.77435 12.7406 4.92052C12.4859 5.06669 12.1971 5.14354 11.9032 5.14335C11.6092 5.14316 11.3205 5.06593 11.0661 4.91944C10.8116 4.77294 10.6003 4.56233 10.4535 4.30877C10.3066 4.05521 10.2294 3.76763 10.2295 3.47492C10.2296 3.18221 10.3071 2.89468 10.4541 2.64122C10.6011 2.38777 10.8126 2.17731 11.0671 2.031C11.3217 1.88469 11.6105 1.80768 11.9044 1.80771V1.80771ZM2.81525 7.90801C2.81525 7.57807 2.9135 7.25554 3.09757 6.9812C3.28164 6.70686 3.54327 6.49304 3.84937 6.36678C4.15547 6.24051 4.49229 6.20748 4.81724 6.27185C5.14219 6.33621 5.44068 6.4951 5.67496 6.7284C5.90924 6.96171 6.06878 7.25896 6.13342 7.58256C6.19806 7.90616 6.16488 8.24159 6.03809 8.54642C5.9113 8.85124 5.69659 9.11178 5.42111 9.29509C5.14563 9.4784 4.82175 9.57624 4.49043 9.57624C4.04631 9.5757 3.62053 9.39977 3.30649 9.08704C2.99245 8.7743 2.81579 8.35029 2.81525 7.90801V7.90801ZM4.49043 17.8171C4.04614 17.8178 3.61978 17.6427 3.30513 17.3303C2.99048 17.018 2.81332 16.5939 2.81262 16.1515C2.81193 15.709 2.98775 15.2844 3.30141 14.9711C3.61508 14.6578 4.04089 14.4813 4.48517 14.4806H4.49569C4.93997 14.4813 5.36578 14.6578 5.67945 14.9711C5.99311 15.2844 6.16893 15.709 6.16824 16.1515C6.16754 16.5939 5.99038 17.018 5.67573 17.3303C5.36108 17.6427 4.93471 17.8178 4.49043 17.8171V17.8171ZM11.9044 22.1944C11.6109 22.1948 11.3225 22.1184 11.0681 21.9729C10.8136 21.8273 10.6021 21.6176 10.4546 21.365C10.3072 21.1123 10.229 20.8255 10.228 20.5332C10.227 20.241 10.3031 19.9536 10.4488 19.6999C10.4512 19.6959 10.4544 19.6923 10.4569 19.6879C10.4593 19.6834 10.4637 19.675 10.467 19.6685C10.6176 19.4185 10.8314 19.2122 11.087 19.0702C11.3426 18.9281 11.6312 18.8553 11.9239 18.8589C12.2166 18.8625 12.5032 18.9425 12.7552 19.0908C13.0073 19.2391 13.2158 19.4507 13.3602 19.7043C13.5045 19.9579 13.5795 20.2448 13.5778 20.5363C13.5761 20.8278 13.4977 21.1138 13.3504 21.3657C13.2032 21.6177 12.9921 21.8267 12.7384 21.9721C12.4847 22.1175 12.1971 22.1942 11.9044 22.1944ZM19.3184 17.8171C18.9871 17.8171 18.6632 17.7193 18.3877 17.536C18.1123 17.3527 17.8975 17.0922 17.7707 16.7874C17.6439 16.4826 17.6107 16.1472 17.6754 15.8236C17.74 15.5 17.8995 15.2027 18.1337 14.9694C18.3679 14.7361 18.6664 14.5772 18.9913 14.5127C19.3162 14.4483 19.653 14.4813 19.9592 14.6075C20.2653 14.7337 20.5269 14.9475 20.711 15.2218C20.8952 15.496 20.9935 15.8185 20.9935 16.1485C20.9931 16.5908 20.8165 17.0149 20.5025 17.3277C20.1884 17.6406 19.7626 17.8166 19.3184 17.8171V17.8171Z" fill="url(#paint0_linear_1776_2608)"/>
<path d="M16.5109 9.77151C16.5109 9.68314 16.4876 9.59632 16.4432 9.51977C16.3989 9.44323 16.3351 9.37965 16.2582 9.33543L12.3127 7.06724L12.3082 7.06523C12.2973 7.05879 12.2856 7.05355 12.2743 7.04792L12.2621 7.04228C12.2488 7.03624 12.235 7.03141 12.2217 7.02658L12.2148 7.02416C12.1649 7.00812 12.1128 6.99997 12.0604 7H12.0555C12.0394 6.99999 12.0234 7.0008 12.0074 7.00242H12.0025C11.9867 7.00398 11.9709 7.0064 11.9552 7.00966L11.9484 7.01168C11.9334 7.0149 11.9188 7.01893 11.9047 7.02335L11.8808 7.03221C11.8443 7.04585 11.8095 7.06354 11.7769 7.08496C11.5319 7.21905 10.7382 7.67566 7.852 9.33986C7.77535 9.38402 7.71173 9.4475 7.66751 9.5239C7.62329 9.6003 7.60004 9.68695 7.6001 9.77514V14.3127C7.6001 14.3159 7.6001 14.3188 7.6001 14.3216C7.6001 14.3393 7.6001 14.3566 7.60374 14.3743C7.60374 14.3824 7.60657 14.39 7.60778 14.3981C7.60899 14.4061 7.61223 14.421 7.61465 14.4323C7.61708 14.4436 7.61951 14.45 7.62234 14.4589C7.62517 14.4677 7.62881 14.4782 7.63204 14.4879C7.63528 14.4975 7.63891 14.506 7.64296 14.5149C7.647 14.5237 7.65145 14.5326 7.6563 14.5414C7.68045 14.5894 7.71227 14.6332 7.75051 14.6711C7.75415 14.6747 7.75819 14.6775 7.76224 14.6812C7.77437 14.6924 7.7869 14.7037 7.80025 14.7142L7.82127 14.7279C7.83178 14.7351 7.8423 14.7428 7.85362 14.7492L11.8085 17.0105C11.885 17.0542 11.9716 17.0772 12.0598 17.0772C12.1479 17.0772 12.2346 17.0542 12.3111 17.0105L16.253 14.7621H16.255C16.2594 14.7597 16.2631 14.7564 16.2671 14.754C16.2817 14.7452 16.2962 14.7359 16.31 14.7258L16.3257 14.7122C16.3375 14.7025 16.3488 14.6932 16.3597 14.6824C16.3706 14.6715 16.3731 14.6679 16.3795 14.6606C16.386 14.6534 16.3961 14.6429 16.4034 14.6332C16.4155 14.6175 16.4267 14.6011 16.4369 14.5841L16.441 14.5781V14.5744C16.4504 14.5582 16.4588 14.5414 16.4661 14.5241C16.4685 14.5193 16.4701 14.514 16.4721 14.5088C16.4779 14.4946 16.4829 14.4801 16.4871 14.4653C16.4871 14.4605 16.4899 14.4557 16.4915 14.4504C16.4965 14.4316 16.5003 14.4125 16.5028 14.3933C16.5028 14.3933 16.5028 14.3933 16.5028 14.3933C16.5056 14.3728 16.507 14.3522 16.5069 14.3316C16.5069 14.3316 16.5069 14.3284 16.5069 14.3268L16.5109 9.77151ZM15.5001 13.4486L12.5654 11.7494V8.37348L15.5001 10.0606V13.4486ZM11.5545 8.37348V11.7494L8.61054 13.4406V10.0683C9.58419 9.50656 10.792 8.81036 11.5545 8.37348ZM12.06 15.9938L9.11799 14.3115L12.0587 12.6203L14.9938 14.32L12.06 15.9938Z" fill="url(#paint1_linear_1776_2608)"/>
<defs>
<linearGradient id="paint0_linear_1776_2608" x1="1.80005" y1="0.799988" x2="21.0654" y2="0.00453563" gradientUnits="userSpaceOnUse">
<stop stop-color="#227BFF"/>
<stop offset="1" stop-color="#451DFF"/>
</linearGradient>
<linearGradient id="paint1_linear_1776_2608" x1="7.6001" y1="7" x2="16.0895" y2="6.65667" gradientUnits="userSpaceOnUse">
<stop stop-color="#227BFF"/>
<stop offset="1" stop-color="#451DFF"/>
</linearGradient>
</defs>
</svg>
